<svg id="svg" version="1.1" xmlns="http://www.w3.org/2000/svg" xmlns:xlink="http://www.w3.org/1999/xlink" width="400" height="400" viewBox="0, 0, 400,400"><g id="svgg"><path id="path0" d="M260.893 113.600 C 260.618 114.040,260.031 114.400,259.589 114.400 C 259.109 114.400,257.630 115.610,255.922 117.400 C 254.348 119.050,252.821 120.400,252.530 120.400 C 251.714 120.400,251.882 120.742,253.400 122.174 C 254.170 122.900,254.800 123.698,254.800 123.947 C 254.800 124.196,254.994 124.400,255.231 124.400 C 255.791 124.400,258.000 126.609,258.000 127.169 C 258.000 127.406,258.166 127.600,258.369 127.600 C 259.148 127.600,261.200 130.096,261.200 131.043 C 261.200 131.677,261.768 132.547,262.800 133.496 C 263.933 134.538,264.400 135.293,264.400 136.084 C 264.400 136.698,264.569 137.200,264.775 137.200 C 264.981 137.200,265.656 137.749,266.275 138.421 C 266.894 139.092,267.805 140.025,268.300 140.493 C 268.795 140.961,269.200 141.809,269.200 142.376 C 269.200 142.974,269.536 143.617,270.000 143.907 C 270.510 144.226,270.800 144.840,270.800 145.603 C 270.800 146.325,271.009 146.800,271.325 146.800 C 272.575 146.800,274.000 148.991,274.000 150.912 C 274.000 152.578,274.128 152.846,275.188 153.394 C 276.643 154.146,277.200 155.122,277.200 156.920 C 277.200 157.686,277.553 158.741,278.000 159.309 C 278.440 159.869,278.801 160.838,278.803 161.463 C 278.804 162.088,279.163 163.140,279.600 163.800 C 280.210 164.721,280.395 165.679,280.397 167.916 C 280.400 170.788,280.424 170.855,282.000 172.400 L 283.600 173.968 283.600 180.247 L 283.600 186.525 285.200 188.093 L 286.800 189.662 286.800 200.800 L 286.800 211.938 285.229 213.479 L 283.658 215.019 283.529 221.490 L 283.400 227.962 281.900 229.335 C 280.423 230.687,280.400 230.753,280.400 233.700 C 280.400 236.086,280.238 236.898,279.600 237.709 C 279.152 238.278,278.800 239.332,278.800 240.101 C 278.800 240.968,278.504 241.744,278.000 242.200 C 277.438 242.709,277.200 243.432,277.200 244.631 C 277.200 246.127,277.003 246.507,275.600 247.707 C 274.189 248.915,274.000 249.282,274.000 250.816 C 274.000 252.609,272.529 254.800,271.325 254.800 C 271.009 254.800,270.800 255.275,270.800 255.997 C 270.800 256.760,270.510 257.374,270.000 257.693 C 269.536 257.983,269.200 258.626,269.200 259.224 C 269.200 259.791,268.795 260.639,268.300 261.107 C 267.805 261.575,266.894 262.508,266.275 263.179 C 265.656 263.851,264.981 264.400,264.775 264.400 C 264.569 264.400,264.400 264.902,264.400 265.516 C 264.400 266.307,263.933 267.062,262.800 268.104 C 261.768 269.053,261.200 269.923,261.200 270.557 C 261.200 271.504,259.148 274.000,258.369 274.000 C 258.166 274.000,258.000 274.194,258.000 274.431 C 258.000 274.991,255.791 277.200,255.231 277.200 C 254.994 277.200,254.800 277.348,254.800 277.528 C 254.800 277.708,254.260 278.461,253.600 279.200 C 252.187 280.783,252.135 281.062,253.192 281.397 C 253.627 281.536,254.288 282.164,254.659 282.793 C 255.031 283.422,255.766 284.168,256.293 284.450 C 256.820 284.732,257.548 285.466,257.912 286.081 C 258.319 286.770,258.913 287.200,259.458 287.200 C 259.945 287.200,260.630 287.487,260.981 287.838 C 261.852 288.709,266.800 284.455,266.800 282.835 C 266.800 282.263,268.181 280.573,270.800 277.941 C 273.043 275.687,274.800 273.589,274.800 273.164 C 274.800 272.748,275.160 272.182,275.600 271.907 C 276.088 271.603,276.400 270.974,276.400 270.299 C 276.400 269.117,279.690 265.200,280.683 265.200 C 281.042 265.200,281.200 264.538,281.200 263.031 C 281.200 261.013,281.307 260.770,282.739 259.531 C 284.117 258.338,284.258 258.044,284.094 256.697 C 283.932 255.360,284.093 255.013,285.556 253.550 C 286.957 252.149,287.200 251.659,287.200 250.234 C 287.200 248.814,287.438 248.330,288.783 247.016 C 290.260 245.574,290.351 245.355,290.133 243.765 C 289.778 241.176,290.280 239.384,291.816 237.756 L 293.200 236.288 293.200 231.924 C 293.200 226.853,293.697 225.418,295.596 225.001 C 297.610 224.558,297.600 224.684,297.600 200.475 C 297.600 175.980,297.703 177.142,295.484 176.585 C 293.698 176.137,293.200 174.631,293.200 169.676 L 293.200 165.312 291.816 163.844 C 290.280 162.216,289.778 160.424,290.133 157.835 C 290.351 156.245,290.260 156.026,288.783 154.584 C 287.438 153.270,287.200 152.786,287.200 151.366 C 287.200 149.941,286.957 149.451,285.556 148.050 C 284.093 146.587,283.932 146.240,284.094 144.903 C 284.258 143.556,284.117 143.262,282.739 142.069 C 281.307 140.830,281.200 140.587,281.200 138.569 C 281.200 137.153,281.034 136.400,280.722 136.400 C 280.079 136.400,278.000 134.377,278.000 133.752 C 278.000 133.478,277.640 133.140,277.200 133.000 C 276.620 132.816,276.400 132.395,276.400 131.469 C 276.400 130.626,276.129 130.023,275.600 129.693 C 275.090 129.374,274.800 128.760,274.800 127.997 C 274.800 127.294,274.590 126.800,274.291 126.800 C 273.459 126.800,266.800 119.648,266.800 118.754 C 266.800 118.143,262.030 112.800,261.484 112.800 C 261.434 112.800,261.168 113.160,260.893 113.600 M145.703 144.959 C 133.649 157.050,127.237 163.204,126.503 163.387 C 125.896 163.538,125.119 163.916,124.775 164.225 C 124.272 164.678,121.738 164.809,111.775 164.894 L 99.400 165.000 99.400 200.800 L 99.400 236.600 111.987 236.706 C 122.629 236.795,124.626 236.903,124.907 237.406 C 125.090 237.733,125.679 238.000,126.216 238.000 C 126.970 238.000,131.369 242.183,145.581 256.416 L 163.970 274.832 167.485 274.716 L 171.000 274.600 171.000 200.800 L 171.000 127.000 167.400 126.904 L 163.800 126.807 145.703 144.959 M230.082 143.515 C 226.408 147.399,226.349 148.324,229.582 151.412 C 232.989 154.666,233.163 154.875,233.617 156.251 C 233.857 156.978,234.591 158.148,235.249 158.852 C 235.906 159.556,236.695 160.733,237.002 161.466 C 237.308 162.200,237.744 162.800,237.969 162.800 C 238.583 162.800,239.600 164.998,239.600 166.324 C 239.600 167.100,240.056 167.972,240.967 168.937 C 242.207 170.252,243.009 172.120,242.730 173.043 C 242.671 173.239,242.914 173.850,243.272 174.400 C 243.629 174.950,244.047 176.030,244.200 176.800 C 244.353 177.570,244.731 178.599,245.039 179.086 C 245.443 179.724,245.600 181.373,245.600 184.986 C 245.600 187.744,245.735 190.001,245.900 190.002 C 246.065 190.003,246.785 190.552,247.500 191.222 L 248.800 192.441 248.800 200.774 L 248.800 209.107 247.200 210.552 L 245.600 211.998 245.600 216.710 C 245.600 220.058,245.441 221.650,245.050 222.211 C 244.748 222.645,244.373 223.760,244.217 224.688 C 244.061 225.617,243.594 226.808,243.180 227.335 C 242.765 227.862,242.527 228.394,242.651 228.518 C 243.166 229.033,242.240 231.313,240.967 232.663 C 240.056 233.628,239.600 234.500,239.600 235.276 C 239.600 236.602,238.583 238.800,237.969 238.800 C 237.744 238.800,237.308 239.400,237.002 240.134 C 236.695 240.867,235.869 242.082,235.165 242.834 C 234.461 243.585,233.732 244.750,233.545 245.421 C 233.193 246.689,233.099 246.801,229.427 250.355 C 226.269 253.411,226.338 254.101,230.204 258.115 L 233.204 261.231 234.805 260.751 C 236.680 260.190,240.000 257.027,240.000 255.803 C 240.000 255.312,241.190 253.798,242.953 252.047 C 245.571 249.447,245.929 248.910,246.108 247.320 C 246.259 245.976,246.662 245.159,247.712 244.063 C 248.482 243.258,249.245 242.150,249.405 241.600 C 249.566 241.050,249.856 240.401,250.050 240.158 C 251.046 238.907,252.296 235.998,252.503 234.451 C 252.686 233.080,253.047 232.446,254.169 231.522 C 255.587 230.353,255.600 230.313,255.600 227.232 C 255.600 224.697,255.748 223.952,256.400 223.200 C 256.858 222.672,257.200 221.703,257.200 220.935 C 257.200 220.087,257.495 219.340,258.000 218.907 C 258.777 218.242,258.800 217.727,258.800 200.800 C 258.800 183.873,258.777 183.358,258.000 182.693 C 257.493 182.259,257.200 181.513,257.200 180.658 C 257.200 179.914,256.841 178.852,256.400 178.291 C 255.763 177.481,255.600 176.668,255.600 174.301 C 255.600 171.370,255.577 171.304,254.000 169.695 C 252.669 168.338,252.400 167.792,252.400 166.455 C 252.400 165.571,252.222 164.737,252.005 164.603 C 251.788 164.469,250.974 163.036,250.196 161.418 C 249.417 159.800,248.225 157.932,247.545 157.268 C 246.640 156.383,246.254 155.580,246.107 154.273 C 245.929 152.692,245.566 152.149,242.953 149.553 C 241.175 147.787,240.000 146.290,240.000 145.791 C 240.000 144.138,235.386 140.351,233.451 140.415 C 233.203 140.423,231.687 141.818,230.082 143.515 M159.920 148.880 C 160.184 149.144,160.400 149.752,160.400 150.231 C 160.400 150.710,160.670 151.326,161.000 151.600 C 161.911 152.356,161.911 249.244,161.000 250.000 C 160.670 250.274,160.400 250.890,160.400 251.369 C 160.400 252.430,159.691 253.200,158.713 253.200 C 158.295 253.200,152.434 247.690,144.893 240.206 L 131.800 227.213 121.469 227.206 L 111.138 227.200 109.869 225.931 L 108.600 224.662 108.600 200.800 L 108.600 176.938 109.924 175.614 L 111.248 174.290 121.524 174.359 L 131.800 174.428 144.798 161.414 C 157.687 148.509,158.705 147.665,159.920 148.880 M208.000 167.200 C 207.741 167.684,207.162 168.000,206.536 168.000 C 205.793 168.000,204.775 168.733,202.926 170.600 C 201.510 172.030,200.183 173.200,199.976 173.200 C 198.924 173.200,199.891 174.806,202.400 177.227 C 204.976 179.713,205.200 180.060,205.200 181.577 C 205.200 182.988,205.430 183.437,206.800 184.696 L 208.400 186.167 208.400 189.496 L 208.400 192.825 210.000 194.296 L 211.600 195.767 211.600 200.800 L 211.600 205.833 210.000 207.304 L 208.400 208.775 208.400 212.116 L 208.400 215.458 206.800 216.800 C 205.372 217.998,205.200 218.335,205.200 219.930 C 205.200 221.609,205.043 221.867,202.626 224.159 C 201.211 225.502,199.996 226.895,199.926 227.256 C 199.740 228.224,205.410 233.600,206.617 233.600 C 207.180 233.600,207.758 233.947,208.025 234.447 C 208.607 235.535,212.400 232.109,212.400 230.495 C 212.400 229.958,212.967 229.014,213.730 228.280 C 215.290 226.779,218.211 220.901,218.540 218.600 C 218.704 217.448,219.136 216.689,220.084 215.887 L 221.400 214.775 221.400 200.800 L 221.400 186.825 220.084 185.713 C 219.139 184.914,218.703 184.149,218.536 183.000 C 218.208 180.743,215.020 174.328,213.594 173.058 C 212.937 172.473,212.396 171.590,212.391 171.097 C 212.383 170.361,209.180 166.400,208.592 166.400 C 208.502 166.400,208.235 166.760,208.000 167.200 " stroke="none" fill="#f8f8f8" fill-rule="evenodd"></path><path id="path1" d="M0.000 200.000 L 0.000 400.000 200.000 400.000 L 400.000 400.000 400.000 200.000 L 400.000 0.000 200.000 0.000 L 0.000 0.000 0.000 200.000 M263.785 113.652 C 264.876 114.774,266.181 115.962,266.685 116.292 C 267.284 116.685,267.600 117.285,267.600 118.032 C 267.600 118.762,267.887 119.326,268.400 119.600 C 268.840 119.835,269.200 120.194,269.200 120.396 C 269.200 120.885,270.953 122.620,271.760 122.929 C 272.112 123.064,272.404 123.406,272.409 123.687 C 272.415 123.969,273.135 124.730,274.009 125.377 C 275.198 126.256,275.600 126.834,275.600 127.663 C 275.600 128.362,275.895 128.930,276.400 129.200 C 276.887 129.461,277.200 130.038,277.200 130.675 C 277.200 131.428,277.874 132.380,279.600 134.063 C 281.823 136.232,282.000 136.536,282.000 138.184 C 282.000 139.988,283.001 141.531,284.560 142.129 C 285.040 142.313,285.200 142.928,285.200 144.587 C 285.200 145.804,285.335 146.801,285.500 146.802 C 286.587 146.809,288.400 149.340,288.400 150.852 C 288.400 152.201,288.660 152.721,290.000 154.047 L 291.600 155.631 291.600 158.831 L 291.600 162.032 293.200 163.554 L 294.800 165.076 294.800 169.709 C 294.800 174.596,295.138 175.600,296.784 175.600 C 297.184 175.600,297.900 175.915,298.375 176.300 L 299.239 177.000 299.232 200.800 L 299.226 224.600 298.369 225.300 C 297.897 225.685,297.117 226.000,296.636 226.000 C 295.023 226.000,294.800 226.697,294.800 231.742 L 294.800 236.524 293.200 238.046 L 291.600 239.568 291.600 242.753 C 291.600 245.906,290.350 248.400,288.769 248.400 C 288.566 248.400,288.400 249.291,288.400 250.380 C 288.400 252.257,286.737 254.791,285.500 254.798 C 285.335 254.799,285.200 255.796,285.200 257.013 C 285.200 258.672,285.040 259.287,284.560 259.471 C 283.001 260.069,282.000 261.612,282.000 263.416 C 282.000 265.064,281.823 265.368,279.600 267.537 C 277.874 269.220,277.200 270.172,277.200 270.925 C 277.200 271.562,276.887 272.139,276.400 272.400 C 275.873 272.682,275.600 273.238,275.600 274.027 C 275.600 274.756,275.350 275.321,274.960 275.471 C 274.136 275.787,272.587 277.336,272.271 278.160 C 272.136 278.512,271.848 278.800,271.631 278.800 C 271.133 278.800,269.200 280.712,269.200 281.204 C 269.200 281.406,268.840 281.765,268.400 282.000 C 267.873 282.282,267.600 282.838,267.600 283.627 C 267.600 284.359,267.350 284.921,266.956 285.072 C 266.602 285.208,265.240 286.417,263.930 287.760 L 261.546 290.200 260.809 289.300 C 260.404 288.805,259.699 288.400,259.243 288.400 C 258.524 288.400,250.800 281.281,250.800 280.618 C 250.800 280.499,252.960 278.277,255.600 275.681 C 259.131 272.208,260.401 270.702,260.404 269.980 C 260.406 269.342,260.963 268.512,262.000 267.600 C 263.006 266.716,263.594 265.852,263.596 265.256 C 263.599 264.629,264.406 263.536,266.000 262.000 C 267.713 260.350,268.400 259.393,268.400 258.658 C 268.400 258.038,268.718 257.458,269.200 257.200 C 269.687 256.939,270.000 256.362,270.000 255.724 C 270.000 254.997,270.489 254.258,271.600 253.307 C 273.067 252.051,273.200 251.773,273.200 249.956 C 273.200 248.509,273.373 247.909,273.840 247.729 C 275.376 247.140,276.400 245.585,276.400 243.844 C 276.400 242.632,276.636 241.910,277.200 241.400 C 277.726 240.924,278.000 240.168,278.000 239.192 C 278.000 238.296,278.329 237.290,278.829 236.654 C 279.455 235.858,279.643 235.086,279.595 233.500 C 279.491 230.026,279.547 229.814,281.000 228.228 L 282.400 226.699 282.400 220.774 L 282.400 214.849 284.000 213.000 L 285.600 211.151 285.600 200.800 L 285.600 190.449 284.000 188.600 L 282.400 186.751 282.400 180.640 L 282.400 174.529 281.000 173.255 C 279.556 171.940,279.495 171.714,279.592 167.990 C 279.636 166.276,279.464 165.566,278.825 164.828 C 278.312 164.238,278.000 163.318,278.000 162.401 C 278.000 161.432,277.725 160.675,277.200 160.200 C 276.636 159.690,276.400 158.968,276.400 157.756 C 276.400 156.015,275.376 154.460,273.840 153.871 C 273.373 153.691,273.200 153.091,273.200 151.644 C 273.200 149.827,273.067 149.549,271.600 148.293 C 270.489 147.342,270.000 146.603,270.000 145.876 C 270.000 145.238,269.687 144.661,269.200 144.400 C 268.718 144.142,268.400 143.562,268.400 142.942 C 268.400 142.207,267.713 141.250,266.000 139.600 C 264.406 138.064,263.599 136.971,263.596 136.344 C 263.594 135.748,263.006 134.884,262.000 134.000 C 260.949 133.076,260.406 132.260,260.402 131.600 C 260.398 130.868,259.351 129.572,256.498 126.763 C 254.354 124.653,252.175 122.460,251.657 121.891 L 250.713 120.856 254.541 117.028 C 257.157 114.412,258.660 113.200,259.288 113.200 C 259.794 113.200,260.432 112.840,260.707 112.400 C 261.400 111.290,261.543 111.349,263.785 113.652 M172.026 126.414 C 173.244 127.066,173.244 274.534,172.026 275.186 C 171.601 275.414,169.416 275.600,167.171 275.600 L 163.090 275.600 145.116 257.600 C 131.803 244.268,126.903 239.600,126.220 239.600 C 125.713 239.600,125.074 239.330,124.800 239.000 C 124.377 238.490,122.428 238.400,111.826 238.400 C 99.824 238.400,99.318 238.369,98.475 237.584 L 97.600 236.769 97.600 200.784 C 97.600 165.333,97.612 164.788,98.400 164.000 C 99.166 163.234,99.733 163.200,111.637 163.200 C 123.468 163.200,124.123 163.161,125.091 162.400 C 125.650 161.960,126.412 161.600,126.783 161.600 C 127.155 161.600,135.455 153.593,145.229 143.807 L 163.000 126.013 167.126 126.007 C 169.396 126.003,171.601 126.186,172.026 126.414 M235.093 139.600 C 235.470 140.040,236.170 140.400,236.650 140.400 C 237.750 140.400,241.588 144.291,241.595 145.413 C 241.598 145.874,242.650 147.257,244.030 148.613 C 246.760 151.294,247.654 152.708,247.351 153.867 C 247.216 154.382,247.543 155.083,248.294 155.886 C 249.416 157.087,251.600 160.897,251.600 161.653 C 251.600 161.862,251.978 162.544,252.440 163.169 C 252.942 163.848,253.280 164.908,253.280 165.806 C 253.280 167.032,253.567 167.581,254.840 168.792 L 256.400 170.276 256.400 173.642 C 256.400 176.574,256.503 177.072,257.200 177.507 C 257.806 177.885,258.000 178.440,258.000 179.789 C 258.000 181.162,258.184 181.670,258.800 182.000 C 259.582 182.419,259.600 182.838,259.600 200.800 C 259.600 218.762,259.582 219.181,258.800 219.600 C 258.184 219.930,258.000 220.438,258.000 221.811 C 258.000 223.160,257.806 223.715,257.200 224.093 C 256.503 224.528,256.400 225.026,256.400 227.958 L 256.400 231.324 254.762 232.882 C 253.501 234.082,253.176 234.649,253.350 235.344 C 253.625 236.440,250.402 243.103,248.467 245.436 C 247.656 246.414,247.242 247.285,247.363 247.761 C 247.652 248.894,246.738 250.328,244.030 252.987 C 242.663 254.331,241.600 255.725,241.600 256.175 C 241.600 257.237,237.659 261.200,236.603 261.200 C 236.149 261.200,235.470 261.560,235.093 262.000 C 233.926 263.363,233.043 262.924,229.265 259.100 C 224.361 254.137,224.324 253.594,228.608 249.379 C 230.551 247.468,231.700 245.999,231.853 245.233 C 231.984 244.580,232.707 243.485,233.460 242.800 C 234.213 242.115,234.937 241.015,235.069 240.356 C 235.210 239.650,235.861 238.737,236.654 238.132 C 237.732 237.310,238.000 236.825,238.000 235.700 C 238.000 234.031,239.286 231.775,240.405 231.483 C 241.048 231.315,241.200 230.935,241.200 229.491 C 241.200 228.314,241.472 227.363,242.000 226.691 C 242.448 226.122,242.800 225.068,242.800 224.299 C 242.800 223.432,243.096 222.656,243.600 222.200 C 244.316 221.552,244.400 220.968,244.400 216.622 L 244.400 211.767 246.000 210.296 L 247.600 208.825 247.600 200.800 L 247.600 192.775 246.000 191.304 L 244.400 189.833 244.400 184.978 C 244.400 180.632,244.316 180.048,243.600 179.400 C 243.075 178.925,242.800 178.168,242.800 177.199 C 242.800 176.297,242.489 175.364,242.000 174.800 C 241.495 174.218,241.200 173.303,241.200 172.323 C 241.200 171.029,240.931 170.512,239.600 169.246 C 238.237 167.949,238.000 167.479,238.000 166.071 C 238.000 164.730,237.803 164.289,236.953 163.732 C 236.377 163.355,235.564 162.250,235.147 161.276 C 234.729 160.302,233.954 159.164,233.423 158.747 C 232.892 158.329,232.239 157.315,231.972 156.494 C 231.660 155.538,230.470 154.022,228.667 152.284 C 224.538 148.307,224.587 147.408,229.200 142.479 C 232.801 138.632,233.832 138.128,235.093 139.600 M145.029 163.070 L 132.257 175.709 121.944 175.754 C 112.614 175.796,111.562 175.868,110.915 176.514 C 109.980 177.448,109.600 222.614,110.512 224.400 L 111.023 225.400 121.612 225.507 L 132.200 225.614 145.000 238.406 C 158.324 251.722,158.733 252.046,159.520 249.872 C 160.214 247.952,160.214 153.648,159.520 151.728 C 158.741 149.576,158.372 149.864,145.029 163.070 M210.927 166.726 C 211.994 167.809,212.996 169.278,213.219 170.084 C 213.459 170.955,214.160 171.932,215.007 172.578 C 215.884 173.247,216.400 173.981,216.400 174.558 C 216.400 175.063,216.760 175.802,217.200 176.200 C 217.640 176.598,218.000 177.306,218.000 177.773 C 218.000 178.240,218.360 178.930,218.800 179.307 C 219.372 179.797,219.600 180.487,219.600 181.732 C 219.600 183.248,219.806 183.662,221.200 184.952 L 222.800 186.432 222.800 200.800 L 222.800 215.168 221.200 216.648 C 219.824 217.921,219.600 218.363,219.600 219.802 C 219.600 220.968,219.357 221.696,218.800 222.200 C 218.360 222.598,218.000 223.232,218.000 223.608 C 218.000 223.984,217.640 224.750,217.200 225.309 C 216.760 225.869,216.400 226.620,216.400 226.979 C 216.400 227.338,215.680 228.337,214.800 229.200 C 213.920 230.063,213.200 231.127,213.200 231.566 C 213.200 232.005,212.210 233.394,211.001 234.652 L 208.802 236.941 207.875 236.071 C 207.365 235.592,206.596 235.200,206.165 235.200 C 205.718 235.200,203.791 233.650,201.684 231.596 C 197.710 227.723,197.351 226.786,199.338 225.473 C 202.033 223.692,204.400 220.756,204.400 219.194 C 204.400 217.911,204.685 217.341,206.000 216.000 C 207.586 214.382,207.600 214.341,207.604 211.284 L 207.608 208.200 209.200 206.800 L 210.792 205.400 210.792 200.800 L 210.792 196.200 209.200 194.800 L 207.608 193.400 207.604 190.333 C 207.600 187.134,207.373 186.000,206.738 186.000 C 205.838 186.000,204.425 183.756,204.413 182.307 C 204.401 180.980,204.067 180.494,201.400 177.921 C 199.749 176.329,198.300 174.714,198.178 174.331 C 197.882 173.397,205.487 165.892,206.477 166.142 C 206.850 166.236,207.463 165.973,207.839 165.557 C 208.765 164.534,208.769 164.535,210.927 166.726 " stroke="none" fill="#731173" fill-rule="evenodd"></path><path id="path2" d="M260.707 112.400 C 260.432 112.840,259.794 113.200,259.288 113.200 C 258.660 113.200,257.157 114.412,254.541 117.028 L 250.713 120.856 251.657 121.891 C 252.175 122.460,254.354 124.653,256.498 126.763 C 259.351 129.572,260.398 130.868,260.402 131.600 C 260.406 132.260,260.949 133.076,262.000 134.000 C 263.006 134.884,263.594 135.748,263.596 136.344 C 263.599 136.971,264.406 138.064,266.000 139.600 C 267.713 141.250,268.400 142.207,268.400 142.942 C 268.400 143.562,268.718 144.142,269.200 144.400 C 269.687 144.661,270.000 145.238,270.000 145.876 C 270.000 146.603,270.489 147.342,271.600 148.293 C 273.067 149.549,273.200 149.827,273.200 151.644 C 273.200 153.091,273.373 153.691,273.840 153.871 C 275.376 154.460,276.400 156.015,276.400 157.756 C 276.400 158.968,276.636 159.690,277.200 160.200 C 277.725 160.675,278.000 161.432,278.000 162.401 C 278.000 163.318,278.312 164.238,278.825 164.828 C 279.464 165.566,279.636 166.276,279.592 167.990 C 279.495 171.714,279.556 171.940,281.000 173.255 L 282.400 174.529 282.400 180.640 L 282.400 186.751 284.000 188.600 L 285.600 190.449 285.600 200.800 L 285.600 211.151 284.000 213.000 L 282.400 214.849 282.400 220.774 L 282.400 226.699 281.000 228.228 C 279.547 229.814,279.491 230.026,279.595 233.500 C 279.643 235.086,279.455 235.858,278.829 236.654 C 278.329 237.290,278.000 238.296,278.000 239.192 C 278.000 240.168,277.726 240.924,277.200 241.400 C 276.636 241.910,276.400 242.632,276.400 243.844 C 276.400 245.585,275.376 247.140,273.840 247.729 C 273.373 247.909,273.200 248.509,273.200 249.956 C 273.200 251.773,273.067 252.051,271.600 253.307 C 270.489 254.258,270.000 254.997,270.000 255.724 C 270.000 256.362,269.687 256.939,269.200 257.200 C 268.718 257.458,268.400 258.038,268.400 258.658 C 268.400 259.393,267.713 260.350,266.000 262.000 C 264.406 263.536,263.599 264.629,263.596 265.256 C 263.594 265.852,263.006 266.716,262.000 267.600 C 260.963 268.512,260.406 269.342,260.404 269.980 C 260.401 270.702,259.131 272.208,255.600 275.681 C 252.960 278.277,250.800 280.499,250.800 280.618 C 250.800 281.281,258.524 288.400,259.243 288.400 C 259.699 288.400,260.404 288.805,260.809 289.300 L 261.546 290.200 263.930 287.760 C 265.240 286.417,266.602 285.208,266.956 285.072 C 267.350 284.921,267.600 284.359,267.600 283.627 C 267.600 282.838,267.873 282.282,268.400 282.000 C 268.840 281.765,269.200 281.406,269.200 281.204 C 269.200 280.712,271.133 278.800,271.631 278.800 C 271.848 278.800,272.136 278.512,272.271 278.160 C 272.587 277.336,274.136 275.787,274.960 275.471 C 275.350 275.321,275.600 274.756,275.600 274.027 C 275.600 273.238,275.873 272.682,276.400 272.400 C 276.887 272.139,277.200 271.562,277.200 270.925 C 277.200 270.172,277.874 269.220,279.600 267.537 C 281.823 265.368,282.000 265.064,282.000 263.416 C 282.000 261.612,283.001 260.069,284.560 259.471 C 285.040 259.287,285.200 258.672,285.200 257.013 C 285.200 255.796,285.335 254.799,285.500 254.798 C 286.737 254.791,288.400 252.257,288.400 250.380 C 288.400 249.291,288.566 248.400,288.769 248.400 C 290.350 248.400,291.600 245.906,291.600 242.753 L 291.600 239.568 293.200 238.046 L 294.800 236.524 294.800 231.742 C 294.800 226.697,295.023 226.000,296.636 226.000 C 297.117 226.000,297.897 225.685,298.369 225.300 L 299.226 224.600 299.232 200.800 L 299.239 177.000 298.375 176.300 C 297.900 175.915,297.184 175.600,296.784 175.600 C 295.138 175.600,294.800 174.596,294.800 169.709 L 294.800 165.076 293.200 163.554 L 291.600 162.032 291.600 158.831 L 291.600 155.631 290.000 154.047 C 288.660 152.721,288.400 152.201,288.400 150.852 C 288.400 149.340,286.587 146.809,285.500 146.802 C 285.335 146.801,285.200 145.804,285.200 144.587 C 285.200 142.928,285.040 142.313,284.560 142.129 C 283.001 141.531,282.000 139.988,282.000 138.184 C 282.000 136.536,281.823 136.232,279.600 134.063 C 277.874 132.380,277.200 131.428,277.200 130.675 C 277.200 130.038,276.887 129.461,276.400 129.200 C 275.895 128.930,275.600 128.362,275.600 127.663 C 275.600 126.834,275.198 126.256,274.009 125.377 C 273.135 124.730,272.415 123.969,272.409 123.687 C 272.404 123.406,272.112 123.064,271.760 122.929 C 270.953 122.620,269.200 120.885,269.200 120.396 C 269.200 120.194,268.840 119.835,268.400 119.600 C 267.887 119.326,267.600 118.762,267.600 118.032 C 267.600 117.285,267.284 116.685,266.685 116.292 C 266.181 115.962,264.876 114.774,263.785 113.652 C 261.543 111.349,261.400 111.290,260.707 112.400 M264.414 114.786 C 266.079 116.451,267.200 117.908,267.200 118.406 C 267.200 118.927,268.700 120.746,271.200 123.259 C 273.400 125.469,275.200 127.593,275.200 127.977 C 275.200 128.362,275.560 129.002,276.000 129.400 C 276.440 129.798,276.800 130.552,276.800 131.074 C 276.800 131.702,277.616 132.843,279.200 134.432 C 281.400 136.639,281.600 136.985,281.600 138.589 C 281.600 140.134,281.786 140.497,283.200 141.707 C 284.634 142.935,284.800 143.267,284.800 144.907 C 284.800 146.548,284.966 146.880,286.400 148.107 C 287.824 149.326,288.000 149.674,288.000 151.265 C 288.000 152.821,288.190 153.221,289.468 154.352 C 290.917 155.635,290.936 155.692,290.968 158.807 C 290.999 161.895,291.032 161.994,292.500 163.498 L 294.000 165.034 294.006 169.417 C 294.013 174.636,294.385 175.625,296.532 176.132 C 298.822 176.674,298.800 176.429,298.800 200.937 C 298.800 225.761,298.894 224.842,296.282 225.518 C 294.399 226.006,294.013 227.152,294.006 232.271 L 294.000 236.742 292.500 237.978 L 291.000 239.214 290.958 242.590 C 290.917 245.950,290.910 245.971,289.458 247.256 C 288.191 248.378,288.000 248.781,288.000 250.335 C 288.000 251.926,287.824 252.274,286.400 253.493 C 284.966 254.720,284.800 255.052,284.800 256.693 C 284.800 258.333,284.634 258.665,283.200 259.893 C 281.782 261.107,281.600 261.463,281.600 263.029 C 281.600 264.661,281.418 264.973,279.200 267.137 C 277.532 268.764,276.800 269.783,276.800 270.477 C 276.800 271.026,276.440 271.802,276.000 272.200 C 275.560 272.598,275.200 273.238,275.200 273.623 C 275.200 274.007,273.400 276.131,271.200 278.341 C 268.595 280.959,267.200 282.664,267.200 283.230 C 267.200 283.779,266.220 285.035,264.534 286.649 C 261.626 289.430,261.531 289.480,260.800 288.600 C 260.526 288.270,259.966 288.000,259.556 288.000 C 258.906 288.000,251.600 281.188,251.600 280.582 C 251.600 280.456,253.670 278.270,256.200 275.723 C 259.223 272.681,260.800 270.796,260.800 270.228 C 260.800 269.745,261.508 268.671,262.400 267.800 C 263.280 266.941,264.006 265.869,264.014 265.419 C 264.022 264.963,265.086 263.547,266.414 262.225 C 267.858 260.788,268.800 259.509,268.800 258.987 C 268.800 258.512,269.160 257.798,269.600 257.400 C 270.040 257.002,270.400 256.316,270.400 255.876 C 270.400 255.437,271.120 254.460,272.000 253.707 C 273.434 252.480,273.600 252.148,273.600 250.507 C 273.600 248.867,273.766 248.535,275.200 247.307 C 276.603 246.107,276.800 245.727,276.800 244.231 C 276.800 243.032,277.038 242.309,277.600 241.800 C 278.126 241.324,278.400 240.568,278.400 239.592 C 278.400 238.714,278.726 237.693,279.200 237.091 C 279.840 236.277,280.000 235.468,280.000 233.047 C 280.000 230.096,280.036 229.987,281.400 228.745 L 282.800 227.471 282.800 221.217 L 282.800 214.962 284.400 213.400 L 286.000 211.838 286.000 200.800 L 286.000 189.762 284.400 188.200 L 282.800 186.638 282.800 180.397 L 282.800 174.157 281.400 172.800 C 280.049 171.490,280.000 171.341,280.000 168.485 C 280.000 166.132,279.836 165.318,279.200 164.509 C 278.726 163.907,278.400 162.886,278.400 162.008 C 278.400 161.032,278.126 160.276,277.600 159.800 C 277.038 159.291,276.800 158.568,276.800 157.369 C 276.800 155.873,276.603 155.493,275.200 154.293 C 273.766 153.065,273.600 152.733,273.600 151.093 C 273.600 149.452,273.434 149.120,272.000 147.893 C 271.120 147.140,270.400 146.163,270.400 145.724 C 270.400 145.284,270.040 144.598,269.600 144.200 C 269.160 143.802,268.800 143.088,268.800 142.613 C 268.800 142.091,267.858 140.812,266.414 139.375 C 265.086 138.053,264.022 136.637,264.014 136.181 C 264.006 135.731,263.280 134.659,262.400 133.800 C 261.501 132.923,260.800 131.856,260.800 131.367 C 260.800 130.787,259.164 128.855,255.906 125.588 C 251.426 121.095,251.079 120.642,251.802 120.240 C 252.237 119.998,253.966 118.405,255.646 116.700 C 257.522 114.794,259.021 113.600,259.535 113.600 C 259.995 113.600,260.565 113.240,260.800 112.800 C 261.384 111.710,261.281 111.653,264.414 114.786 M145.229 143.807 C 135.455 153.593,127.155 161.600,126.783 161.600 C 126.412 161.600,125.650 161.960,125.091 162.400 C 124.123 163.161,123.468 163.200,111.637 163.200 C 99.733 163.200,99.166 163.234,98.400 164.000 C 97.612 164.788,97.600 165.333,97.600 200.784 L 97.600 236.769 98.475 237.584 C 99.318 238.369,99.824 238.400,111.826 238.400 C 122.428 238.400,124.377 238.490,124.800 239.000 C 125.074 239.330,125.713 239.600,126.220 239.600 C 126.903 239.600,131.803 244.268,145.116 257.600 L 163.090 275.600 167.171 275.600 C 169.416 275.600,171.601 275.414,172.026 275.186 C 173.244 274.534,173.244 127.066,172.026 126.414 C 171.601 126.186,169.396 126.003,167.126 126.007 L 163.000 126.013 145.229 143.807 M171.520 126.880 C 172.218 127.578,172.218 274.022,171.520 274.720 C 171.212 275.028,169.669 275.197,167.220 275.191 L 163.400 275.182 145.243 256.991 C 132.120 243.843,126.838 238.800,126.192 238.800 C 125.700 238.800,125.074 238.530,124.800 238.200 C 124.377 237.691,122.450 237.600,112.027 237.600 C 102.838 237.600,99.582 237.474,99.071 237.100 C 98.018 236.327,98.018 165.273,99.071 164.500 C 99.582 164.126,102.838 164.000,112.027 164.000 C 122.450 164.000,124.377 163.909,124.800 163.400 C 125.074 163.070,125.695 162.800,126.181 162.800 C 126.812 162.800,132.245 157.612,145.232 144.609 L 163.400 126.417 167.220 126.409 C 169.668 126.403,171.212 126.572,171.520 126.880 M229.200 142.479 C 224.587 147.408,224.538 148.307,228.667 152.284 C 230.470 154.022,231.660 155.538,231.972 156.494 C 232.239 157.315,232.892 158.329,233.423 158.747 C 233.954 159.164,234.729 160.302,235.147 161.276 C 235.564 162.250,236.377 163.355,236.953 163.732 C 237.803 164.289,238.000 164.730,238.000 166.071 C 238.000 167.479,238.237 167.949,239.600 169.246 C 240.931 170.512,241.200 171.029,241.200 172.323 C 241.200 173.303,241.495 174.218,242.000 174.800 C 242.489 175.364,242.800 176.297,242.800 177.199 C 242.800 178.168,243.075 178.925,243.600 179.400 C 244.316 180.048,244.400 180.632,244.400 184.978 L 244.400 189.833 246.000 191.304 L 247.600 192.775 247.600 200.800 L 247.600 208.825 246.000 210.296 L 244.400 211.767 244.400 216.622 C 244.400 220.968,244.316 221.552,243.600 222.200 C 243.096 222.656,242.800 223.432,242.800 224.299 C 242.800 225.068,242.448 226.122,242.000 226.691 C 241.472 227.363,241.200 228.314,241.200 229.491 C 241.200 230.935,241.048 231.315,240.405 231.483 C 239.286 231.775,238.000 234.031,238.000 235.700 C 238.000 236.825,237.732 237.310,236.654 238.132 C 235.861 238.737,235.210 239.650,235.069 240.356 C 234.937 241.015,234.213 242.115,233.460 242.800 C 232.707 243.485,231.984 244.580,231.853 245.233 C 231.700 245.999,230.551 247.468,228.608 249.379 C 224.324 253.594,224.361 254.137,229.265 259.100 C 233.043 262.924,233.926 263.363,235.093 262.000 C 235.470 261.560,236.149 261.200,236.603 261.200 C 237.659 261.200,241.600 257.237,241.600 256.175 C 241.600 255.725,242.663 254.331,244.030 252.987 C 246.738 250.328,247.652 248.894,247.363 247.761 C 247.242 247.285,247.656 246.414,248.467 245.436 C 250.402 243.103,253.625 236.440,253.350 235.344 C 253.176 234.649,253.501 234.082,254.762 232.882 L 256.400 231.324 256.400 227.958 C 256.400 225.026,256.503 224.528,257.200 224.093 C 257.806 223.715,258.000 223.160,258.000 221.811 C 258.000 220.438,258.184 219.930,258.800 219.600 C 259.582 219.181,259.600 218.762,259.600 200.800 C 259.600 182.838,259.582 182.419,258.800 182.000 C 258.184 181.670,258.000 181.162,258.000 179.789 C 258.000 178.440,257.806 177.885,257.200 177.507 C 256.503 177.072,256.400 176.574,256.400 173.642 L 256.400 170.276 254.840 168.792 C 253.567 167.581,253.280 167.032,253.280 165.806 C 253.280 164.908,252.942 163.848,252.440 163.169 C 251.978 162.544,251.600 161.862,251.600 161.653 C 251.600 160.897,249.416 157.087,248.294 155.886 C 247.543 155.083,247.216 154.382,247.351 153.867 C 247.654 152.708,246.760 151.294,244.030 148.613 C 242.650 147.257,241.598 145.874,241.595 145.413 C 241.588 144.291,237.750 140.400,236.650 140.400 C 236.170 140.400,235.470 140.040,235.093 139.600 C 233.832 138.128,232.801 138.632,229.200 142.479 M235.200 140.200 C 235.474 140.530,236.011 140.800,236.394 140.800 C 237.270 140.800,240.800 144.529,240.800 145.454 C 240.800 145.833,242.150 147.530,243.800 149.225 C 246.471 151.970,246.800 152.476,246.800 153.835 C 246.800 154.980,247.093 155.667,247.974 156.581 C 249.600 158.271,252.631 164.320,252.914 166.443 C 253.096 167.813,253.462 168.464,254.574 169.400 C 255.992 170.594,256.000 170.617,256.000 173.838 C 256.000 176.568,256.126 177.190,256.800 177.800 C 257.336 178.285,257.600 179.032,257.600 180.066 C 257.600 181.113,257.857 181.828,258.400 182.293 C 259.178 182.959,259.200 183.473,259.200 200.800 C 259.200 218.127,259.178 218.641,258.400 219.307 C 257.857 219.772,257.600 220.487,257.600 221.534 C 257.600 222.568,257.336 223.315,256.800 223.800 C 256.127 224.409,256.000 225.032,256.000 227.723 L 256.000 230.923 254.410 232.391 C 253.125 233.577,252.826 234.123,252.853 235.230 C 252.894 236.919,249.685 243.301,247.980 244.920 C 247.043 245.809,246.800 246.383,246.800 247.699 C 246.800 249.235,246.579 249.573,243.800 252.289 C 242.075 253.976,240.800 255.557,240.800 256.010 C 240.800 257.068,238.110 259.992,236.527 260.655 C 235.827 260.948,235.142 261.371,235.004 261.594 C 234.262 262.795,232.540 261.847,229.452 258.536 C 225.385 254.177,225.379 253.194,229.400 249.386 C 230.957 247.910,232.269 246.239,232.750 245.117 C 233.185 244.103,233.800 243.122,234.118 242.937 C 234.436 242.751,235.100 241.790,235.594 240.800 C 236.088 239.810,236.932 238.639,237.471 238.198 C 238.148 237.643,238.519 236.841,238.674 235.598 C 238.839 234.271,239.266 233.415,240.300 232.331 C 241.373 231.206,241.724 230.477,241.795 229.224 C 241.846 228.324,242.174 227.271,242.525 226.883 C 242.875 226.496,243.283 225.422,243.431 224.497 C 243.579 223.572,243.947 222.610,244.250 222.359 C 244.663 222.016,244.800 220.655,244.800 216.889 L 244.800 211.877 246.400 210.507 L 248.000 209.138 248.000 200.800 L 248.000 192.462 246.400 191.093 L 244.800 189.723 244.800 184.711 C 244.800 180.917,244.665 179.586,244.243 179.236 C 243.937 178.982,243.567 177.972,243.420 176.992 C 243.273 176.012,242.867 174.924,242.518 174.575 C 242.169 174.226,241.843 173.220,241.793 172.339 C 241.724 171.127,241.362 170.382,240.300 169.269 C 239.265 168.185,238.839 167.329,238.674 166.001 C 238.520 164.766,238.138 163.933,237.457 163.347 C 236.911 162.878,236.066 161.707,235.580 160.747 C 235.094 159.786,234.455 158.859,234.161 158.688 C 233.867 158.516,233.252 157.529,232.795 156.496 C 232.312 155.403,230.885 153.569,229.388 152.115 C 225.413 148.256,225.419 147.434,229.455 143.066 C 232.716 139.535,234.082 138.853,235.200 140.200 M145.200 162.044 L 132.200 174.857 121.909 174.928 L 111.618 175.000 110.509 176.109 L 109.400 177.218 109.291 200.158 C 109.221 214.737,109.327 223.481,109.581 224.149 C 110.525 226.632,111.574 226.844,122.450 226.743 L 132.300 226.652 145.175 239.426 C 157.811 251.962,159.600 253.462,159.600 251.517 C 159.600 251.000,159.873 250.188,160.207 249.712 C 160.740 248.950,160.813 243.090,160.813 200.800 C 160.813 158.510,160.740 152.650,160.207 151.888 C 159.873 151.412,159.600 150.612,159.600 150.111 C 159.600 148.137,157.781 149.645,145.200 162.044 M159.520 151.728 C 160.214 153.648,160.214 247.952,159.520 249.872 C 158.733 252.046,158.324 251.722,145.000 238.406 L 132.200 225.614 121.612 225.507 L 111.023 225.400 110.512 224.400 C 109.600 222.614,109.980 177.448,110.915 176.514 C 111.562 175.868,112.614 175.796,121.944 175.754 L 132.257 175.709 145.029 163.070 C 158.372 149.864,158.741 149.576,159.520 151.728 M207.839 165.557 C 207.463 165.973,206.850 166.236,206.477 166.142 C 205.487 165.892,197.882 173.397,198.178 174.331 C 198.300 174.714,199.749 176.329,201.400 177.921 C 204.067 180.494,204.401 180.980,204.413 182.307 C 204.425 183.756,205.838 186.000,206.738 186.000 C 207.373 186.000,207.600 187.134,207.604 190.333 L 207.608 193.400 209.200 194.800 L 210.792 196.200 210.792 200.800 L 210.792 205.400 209.200 206.800 L 207.608 208.200 207.604 211.284 C 207.600 214.341,207.586 214.382,206.000 216.000 C 204.685 217.341,204.400 217.911,204.400 219.194 C 204.400 220.756,202.033 223.692,199.338 225.473 C 197.351 226.786,197.710 227.723,201.684 231.596 C 203.791 233.650,205.718 235.200,206.165 235.200 C 206.596 235.200,207.365 235.592,207.875 236.071 L 208.802 236.941 211.001 234.652 C 212.210 233.394,213.200 232.005,213.200 231.566 C 213.200 231.127,213.920 230.063,214.800 229.200 C 215.680 228.337,216.400 227.338,216.400 226.979 C 216.400 226.620,216.760 225.869,217.200 225.309 C 217.640 224.750,218.000 223.984,218.000 223.608 C 218.000 223.232,218.360 222.598,218.800 222.200 C 219.357 221.696,219.600 220.968,219.600 219.802 C 219.600 218.363,219.824 217.921,221.200 216.648 L 222.800 215.168 222.800 200.800 L 222.800 186.432 221.200 184.952 C 219.806 183.662,219.600 183.248,219.600 181.732 C 219.600 180.487,219.372 179.797,218.800 179.307 C 218.360 178.930,218.000 178.240,218.000 177.773 C 218.000 177.306,217.640 176.598,217.200 176.200 C 216.760 175.802,216.400 175.063,216.400 174.558 C 216.400 173.981,215.884 173.247,215.007 172.578 C 214.160 171.932,213.459 170.955,213.219 170.084 C 212.873 168.831,209.484 164.800,208.777 164.800 C 208.638 164.800,208.216 165.140,207.839 165.557 M210.864 167.588 C 211.950 168.703,212.800 169.950,212.800 170.428 C 212.800 170.896,213.372 171.813,214.070 172.466 C 215.695 173.983,219.200 180.930,219.200 182.632 C 219.200 183.616,219.551 184.226,220.700 185.234 L 222.200 186.551 222.200 200.904 C 222.200 214.488,222.160 215.279,221.455 215.673 C 219.977 216.500,219.200 217.612,219.200 218.900 C 219.200 220.615,215.677 227.633,214.057 229.147 C 213.366 229.793,212.797 230.654,212.794 231.060 C 212.781 232.612,208.914 236.227,208.077 235.470 C 207.670 235.101,206.991 234.797,206.569 234.793 C 205.714 234.785,198.800 228.281,198.800 227.485 C 198.800 227.207,200.087 225.729,201.659 224.199 C 204.211 221.716,204.540 221.222,204.715 219.608 C 204.872 218.167,205.225 217.498,206.456 216.316 C 207.990 214.841,208.000 214.813,208.000 211.697 C 208.000 208.567,208.002 208.560,209.600 207.000 L 211.200 205.438 211.200 200.800 L 211.200 196.162 209.600 194.600 L 208.000 193.038 208.000 189.790 L 208.000 186.542 206.448 185.240 C 205.128 184.133,204.868 183.651,204.711 182.018 C 204.541 180.247,204.306 179.889,201.663 177.377 C 200.089 175.880,198.800 174.420,198.800 174.133 C 198.800 173.262,205.709 166.815,206.651 166.807 C 207.119 166.803,207.726 166.530,208.000 166.200 C 208.694 165.364,208.701 165.367,210.864 167.588 " stroke="none" fill="#626262" fill-rule="evenodd"></path><path id="path3" d="M260.600 113.200 C 260.202 113.640,259.562 114.000,259.178 114.000 C 258.794 114.000,256.929 115.551,255.033 117.447 L 251.585 120.895 253.111 122.547 C 253.950 123.456,256.023 125.550,257.718 127.200 C 259.928 129.352,260.800 130.483,260.803 131.200 C 260.806 131.861,261.347 132.674,262.400 133.600 C 263.362 134.446,263.994 135.355,263.996 135.898 C 263.999 136.465,264.883 137.657,266.400 139.137 C 268.126 140.820,268.800 141.772,268.800 142.525 C 268.800 143.162,269.113 143.739,269.600 144.000 C 270.087 144.261,270.400 144.838,270.400 145.476 C 270.400 146.203,270.889 146.942,272.000 147.893 C 273.381 149.075,273.600 149.485,273.600 150.893 C 273.600 152.275,273.844 152.756,275.200 154.046 C 276.534 155.315,276.800 155.828,276.800 157.130 C 276.800 158.086,277.110 159.086,277.600 159.709 C 278.040 160.269,278.401 161.238,278.403 161.863 C 278.404 162.488,278.763 163.540,279.200 164.200 C 279.812 165.123,279.995 166.079,279.997 168.346 C 280.000 171.238,280.027 171.317,281.500 172.665 L 283.000 174.038 283.124 180.519 L 283.247 187.000 284.724 188.324 L 286.200 189.649 286.200 200.731 L 286.200 211.813 284.727 213.207 L 283.254 214.600 283.127 221.081 L 283.000 227.562 281.500 228.935 C 280.027 230.283,280.000 230.362,279.997 233.254 C 279.995 235.521,279.812 236.477,279.200 237.400 C 278.763 238.060,278.404 239.157,278.403 239.838 C 278.401 240.565,278.070 241.375,277.600 241.800 C 277.032 242.314,276.800 243.032,276.800 244.274 C 276.800 245.805,276.599 246.210,275.200 247.496 C 273.819 248.765,273.600 249.198,273.600 250.652 C 273.600 252.124,273.397 252.512,272.000 253.707 C 270.889 254.658,270.400 255.397,270.400 256.124 C 270.400 256.762,270.087 257.339,269.600 257.600 C 269.118 257.858,268.800 258.438,268.800 259.058 C 268.800 259.793,268.113 260.750,266.400 262.400 C 264.806 263.936,263.999 265.029,263.996 265.656 C 263.994 266.252,263.406 267.116,262.400 268.000 C 261.347 268.926,260.806 269.739,260.803 270.400 C 260.800 271.117,259.928 272.248,257.718 274.400 C 256.023 276.050,253.947 278.147,253.103 279.061 L 251.570 280.722 255.064 284.161 C 256.985 286.052,258.875 287.600,259.263 287.600 C 259.651 287.600,260.339 287.997,260.791 288.483 L 261.613 289.365 264.407 286.593 C 266.119 284.894,267.200 283.492,267.200 282.971 C 267.200 282.420,268.605 280.757,271.200 278.239 C 274.089 275.436,275.200 274.090,275.200 273.393 C 275.200 272.838,275.539 272.246,276.000 272.000 C 276.487 271.739,276.800 271.162,276.800 270.525 C 276.800 269.772,277.474 268.820,279.200 267.137 C 281.397 264.994,281.600 264.650,281.600 263.079 C 281.600 261.603,281.825 261.143,283.200 259.800 C 284.540 258.491,284.800 257.978,284.800 256.636 C 284.800 255.327,285.072 254.755,286.285 253.513 C 287.534 252.233,287.752 251.756,287.663 250.496 C 287.571 249.207,287.781 248.781,289.178 247.419 L 290.800 245.838 290.800 242.720 C 290.800 239.632,290.815 239.585,292.400 237.903 L 294.000 236.204 294.000 231.928 C 294.000 226.805,294.314 225.770,295.980 225.404 C 298.533 224.844,298.400 226.189,298.400 200.945 C 298.400 176.517,298.410 176.641,296.404 176.201 C 294.375 175.755,294.000 174.753,294.000 169.772 L 294.000 165.323 292.500 163.778 C 291.057 162.292,290.995 162.112,290.855 159.017 C 290.715 155.908,290.657 155.742,289.126 154.078 C 287.826 152.664,287.564 152.110,287.661 150.986 C 287.757 149.862,287.512 149.343,286.289 148.091 C 285.072 146.845,284.800 146.274,284.800 144.964 C 284.800 143.622,284.540 143.109,283.200 141.800 C 281.825 140.457,281.600 139.997,281.600 138.521 C 281.600 136.950,281.397 136.606,279.200 134.463 C 277.474 132.780,276.800 131.828,276.800 131.075 C 276.800 130.438,276.487 129.861,276.000 129.600 C 275.531 129.349,275.200 128.762,275.200 128.183 C 275.200 127.455,274.144 126.171,271.200 123.321 C 268.647 120.850,267.200 119.146,267.200 118.614 C 267.200 117.884,262.215 112.400,261.552 112.400 C 261.427 112.400,260.998 112.760,260.600 113.200 M264.188 115.374 C 265.691 116.854,266.800 118.290,266.800 118.754 C 266.800 119.648,273.459 126.800,274.291 126.800 C 274.590 126.800,274.800 127.294,274.800 127.997 C 274.800 128.760,275.090 129.374,275.600 129.693 C 276.129 130.023,276.400 130.626,276.400 131.469 C 276.400 132.395,276.620 132.816,277.200 133.000 C 277.640 133.140,278.000 133.478,278.000 133.752 C 278.000 134.377,280.079 136.400,280.722 136.400 C 281.034 136.400,281.200 137.153,281.200 138.569 C 281.200 140.587,281.307 140.830,282.739 142.069 C 284.117 143.262,284.258 143.556,284.094 144.903 C 283.932 146.240,284.093 146.587,285.556 148.050 C 286.957 149.451,287.200 149.941,287.200 151.366 C 287.200 152.786,287.438 153.270,288.783 154.584 C 290.260 156.026,290.351 156.245,290.133 157.835 C 289.778 160.424,290.280 162.216,291.816 163.844 L 293.200 165.312 293.200 169.676 C 293.200 174.631,293.698 176.137,295.484 176.585 C 297.703 177.142,297.600 175.980,297.600 200.475 C 297.600 224.684,297.610 224.558,295.596 225.001 C 293.697 225.418,293.200 226.853,293.200 231.924 L 293.200 236.288 291.816 237.756 C 290.280 239.384,289.778 241.176,290.133 243.765 C 290.351 245.355,290.260 245.574,288.783 247.016 C 287.438 248.330,287.200 248.814,287.200 250.234 C 287.200 251.659,286.957 252.149,285.556 253.550 C 284.093 255.013,283.932 255.360,284.094 256.697 C 284.258 258.044,284.117 258.338,282.739 259.531 C 281.307 260.770,281.200 261.013,281.200 263.031 C 281.200 264.538,281.042 265.200,280.683 265.200 C 279.690 265.200,276.400 269.117,276.400 270.299 C 276.400 270.974,276.088 271.603,275.600 271.907 C 275.160 272.182,274.800 272.748,274.800 273.164 C 274.800 273.589,273.043 275.687,270.800 277.941 C 268.181 280.573,266.800 282.263,266.800 282.835 C 266.800 284.455,261.852 288.709,260.981 287.838 C 260.630 287.487,259.945 287.200,259.458 287.200 C 258.913 287.200,258.319 286.770,257.912 286.081 C 257.548 285.466,256.820 284.732,256.293 284.450 C 255.766 284.168,255.031 283.422,254.659 282.793 C 254.288 282.164,253.627 281.536,253.192 281.397 C 252.135 281.062,252.187 280.783,253.600 279.200 C 254.260 278.461,254.800 277.708,254.800 277.528 C 254.800 277.348,254.994 277.200,255.231 277.200 C 255.791 277.200,258.000 274.991,258.000 274.431 C 258.000 274.194,258.166 274.000,258.369 274.000 C 259.148 274.000,261.200 271.504,261.200 270.557 C 261.200 269.923,261.768 269.053,262.800 268.104 C 263.933 267.062,264.400 266.307,264.400 265.516 C 264.400 264.902,264.569 264.400,264.775 264.400 C 264.981 264.400,265.656 263.851,266.275 263.179 C 266.894 262.508,267.805 261.575,268.300 261.107 C 268.795 260.639,269.200 259.791,269.200 259.224 C 269.200 258.626,269.536 257.983,270.000 257.693 C 270.510 257.374,270.800 256.760,270.800 255.997 C 270.800 255.275,271.009 254.800,271.325 254.800 C 272.529 254.800,274.000 252.609,274.000 250.816 C 274.000 249.282,274.189 248.915,275.600 247.707 C 277.003 246.507,277.200 246.127,277.200 244.631 C 277.200 243.432,277.438 242.709,278.000 242.200 C 278.504 241.744,278.800 240.968,278.800 240.101 C 278.800 239.332,279.152 238.278,279.600 237.709 C 280.238 236.898,280.400 236.086,280.400 233.700 C 280.400 230.753,280.423 230.687,281.900 229.335 L 283.400 227.962 283.529 221.490 L 283.658 215.019 285.229 213.479 L 286.800 211.938 286.800 200.800 L 286.800 189.662 285.200 188.093 L 283.600 186.525 283.600 180.247 L 283.600 173.968 282.000 172.400 C 280.424 170.855,280.400 170.788,280.397 167.916 C 280.395 165.679,280.210 164.721,279.600 163.800 C 279.163 163.140,278.804 162.088,278.803 161.463 C 278.801 160.838,278.440 159.869,278.000 159.309 C 277.553 158.741,277.200 157.686,277.200 156.920 C 277.200 155.122,276.643 154.146,275.188 153.394 C 274.128 152.846,274.000 152.578,274.000 150.912 C 274.000 148.991,272.575 146.800,271.325 146.800 C 271.009 146.800,270.800 146.325,270.800 145.603 C 270.800 144.840,270.510 144.226,270.000 143.907 C 269.536 143.617,269.200 142.974,269.200 142.376 C 269.200 141.809,268.795 140.961,268.300 140.493 C 267.805 140.025,266.894 139.092,266.275 138.421 C 265.656 137.749,264.981 137.200,264.775 137.200 C 264.569 137.200,264.400 136.698,264.400 136.084 C 264.400 135.293,263.933 134.538,262.800 133.496 C 261.768 132.547,261.200 131.677,261.200 131.043 C 261.200 130.096,259.148 127.600,258.369 127.600 C 258.166 127.600,258.000 127.406,258.000 127.169 C 258.000 126.609,255.791 124.400,255.231 124.400 C 254.994 124.400,254.800 124.196,254.800 123.947 C 254.800 123.698,254.170 122.900,253.400 122.174 C 251.882 120.742,251.714 120.400,252.530 120.400 C 252.821 120.400,254.348 119.050,255.922 117.400 C 257.630 115.610,259.109 114.400,259.589 114.400 C 260.031 114.400,260.618 114.040,260.893 113.600 C 261.524 112.589,261.166 112.396,264.188 115.374 M145.476 144.600 C 132.088 158.002,127.053 162.800,126.378 162.800 C 125.875 162.800,125.143 163.090,124.751 163.444 C 124.126 164.010,122.565 164.080,111.974 164.023 C 101.104 163.965,99.834 164.026,99.155 164.641 C 98.125 165.573,97.955 235.933,98.980 236.784 C 99.408 237.138,102.738 237.253,111.598 237.218 C 123.143 237.172,123.678 237.203,124.672 237.985 C 125.242 238.433,126.089 238.802,126.554 238.804 C 127.135 238.806,133.087 244.513,145.536 257.004 L 163.673 275.200 167.004 275.200 C 168.836 275.200,170.619 275.091,170.967 274.957 C 171.938 274.585,171.938 127.015,170.967 126.643 C 170.619 126.509,168.833 126.400,166.997 126.400 L 163.659 126.400 145.476 144.600 M171.000 200.800 L 171.000 274.600 167.485 274.716 L 163.970 274.832 145.581 256.416 C 131.369 242.183,126.970 238.000,126.216 238.000 C 125.679 238.000,125.090 237.733,124.907 237.406 C 124.626 236.903,122.629 236.795,111.987 236.706 L 99.400 236.600 99.400 200.800 L 99.400 165.000 111.775 164.894 C 121.738 164.809,124.272 164.678,124.775 164.225 C 125.119 163.916,125.896 163.538,126.503 163.387 C 127.237 163.204,133.649 157.050,145.703 144.959 L 163.800 126.807 167.400 126.904 L 171.000 127.000 171.000 200.800 M229.900 142.897 C 225.676 147.354,225.632 148.276,229.465 152.003 C 230.931 153.428,232.459 155.337,232.861 156.244 C 233.262 157.152,233.876 158.131,234.225 158.420 C 234.573 158.710,235.226 159.679,235.674 160.573 C 236.123 161.468,237.010 162.685,237.645 163.277 C 238.532 164.105,238.800 164.713,238.800 165.895 C 238.800 167.139,239.107 167.765,240.400 169.151 C 241.650 170.492,242.000 171.181,242.000 172.302 C 242.000 173.091,242.285 174.052,242.634 174.437 C 242.983 174.823,243.369 175.917,243.494 176.869 C 243.618 177.821,244.062 179.041,244.480 179.579 C 245.135 180.424,245.231 181.184,245.173 185.102 L 245.106 189.645 246.596 190.972 L 248.087 192.298 248.024 200.768 L 247.961 209.238 246.563 210.558 L 245.164 211.877 245.082 216.697 C 245.018 220.482,244.861 221.677,244.353 222.259 C 243.997 222.666,243.607 223.779,243.486 224.731 C 243.366 225.683,243.006 226.763,242.686 227.131 C 242.367 227.499,242.010 228.552,241.894 229.471 C 241.741 230.691,241.294 231.532,240.242 232.585 C 239.064 233.763,238.800 234.321,238.800 235.636 C 238.800 236.895,238.548 237.480,237.645 238.323 C 237.010 238.915,236.111 240.155,235.648 241.079 C 235.185 242.002,234.559 242.902,234.258 243.079 C 233.957 243.255,233.348 244.227,232.906 245.237 C 232.460 246.254,231.159 247.950,229.990 249.037 C 228.829 250.117,227.637 251.238,227.340 251.529 C 225.830 253.008,226.642 255.225,229.967 258.700 C 231.703 260.515,233.294 262.000,233.502 262.000 C 235.290 262.000,240.368 257.744,240.389 256.227 C 240.395 255.802,241.822 253.998,243.560 252.217 C 246.391 249.316,246.720 248.821,246.720 247.450 C 246.720 246.283,247.012 245.619,247.953 244.648 C 249.570 242.980,252.800 236.622,252.800 235.107 C 252.800 234.268,253.234 233.491,254.278 232.460 C 255.709 231.047,255.764 230.887,255.978 227.485 C 256.125 225.156,256.383 223.857,256.744 223.635 C 257.043 223.450,257.380 222.474,257.494 221.466 C 257.614 220.396,258.012 219.351,258.450 218.955 C 259.656 217.863,259.609 183.694,258.400 182.600 C 257.874 182.124,257.600 181.368,257.600 180.392 C 257.600 179.514,257.274 178.493,256.800 177.891 C 256.163 177.081,256.000 176.268,256.000 173.901 C 256.000 170.970,255.977 170.904,254.400 169.295 C 253.278 168.150,252.800 167.317,252.800 166.505 C 252.800 164.947,249.247 157.946,247.844 156.739 C 246.966 155.984,246.720 155.428,246.720 154.196 C 246.720 152.768,246.424 152.317,243.560 149.383 C 241.822 147.602,240.400 145.832,240.400 145.449 C 240.400 143.716,235.363 139.539,233.361 139.613 C 233.163 139.621,231.605 141.099,229.900 142.897 M235.335 140.999 C 237.137 141.752,240.000 144.692,240.000 145.791 C 240.000 146.290,241.175 147.787,242.953 149.553 C 245.566 152.149,245.929 152.692,246.107 154.273 C 246.254 155.580,246.640 156.383,247.545 157.268 C 248.225 157.932,249.417 159.800,250.196 161.418 C 250.974 163.036,251.788 164.469,252.005 164.603 C 252.222 164.737,252.400 165.571,252.400 166.455 C 252.400 167.792,252.669 168.338,254.000 169.695 C 255.577 171.304,255.600 171.370,255.600 174.301 C 255.600 176.668,255.763 177.481,256.400 178.291 C 256.841 178.852,257.200 179.914,257.200 180.658 C 257.200 181.513,257.493 182.259,258.000 182.693 C 258.777 183.358,258.800 183.873,258.800 200.800 C 258.800 217.727,258.777 218.242,258.000 218.907 C 257.495 219.340,257.200 220.087,257.200 220.935 C 257.200 221.703,256.858 222.672,256.400 223.200 C 255.748 223.952,255.600 224.697,255.600 227.232 C 255.600 230.313,255.587 230.353,254.169 231.522 C 253.047 232.446,252.686 233.080,252.503 234.451 C 252.296 235.998,251.046 238.907,250.050 240.158 C 249.856 240.401,249.566 241.050,249.405 241.600 C 249.245 242.150,248.482 243.258,247.712 244.063 C 246.662 245.159,246.259 245.976,246.108 247.320 C 245.929 248.910,245.571 249.447,242.953 252.047 C 241.190 253.798,240.000 255.312,240.000 255.803 C 240.000 257.027,236.680 260.190,234.805 260.751 L 233.204 261.231 230.204 258.115 C 226.338 254.101,226.269 253.411,229.427 250.355 C 233.099 246.801,233.193 246.689,233.545 245.421 C 233.732 244.750,234.461 243.585,235.165 242.834 C 235.869 242.082,236.695 240.867,237.002 240.134 C 237.308 239.400,237.744 238.800,237.969 238.800 C 238.583 238.800,239.600 236.602,239.600 235.276 C 239.600 234.500,240.056 233.628,240.967 232.663 C 242.240 231.313,243.166 229.033,242.651 228.518 C 242.527 228.394,242.765 227.862,243.180 227.335 C 243.594 226.808,244.061 225.617,244.217 224.688 C 244.373 223.760,244.748 222.645,245.050 222.211 C 245.441 221.650,245.600 220.058,245.600 216.710 L 245.600 211.998 247.200 210.552 L 248.800 209.107 248.800 200.774 L 248.800 192.441 247.500 191.222 C 246.785 190.552,246.065 190.003,245.900 190.002 C 245.735 190.001,245.600 187.744,245.600 184.986 C 245.600 181.373,245.443 179.724,245.039 179.086 C 244.731 178.599,244.353 177.570,244.200 176.800 C 244.047 176.030,243.629 174.950,243.272 174.400 C 242.914 173.850,242.671 173.239,242.730 173.043 C 243.009 172.120,242.207 170.252,240.967 168.937 C 240.056 167.972,239.600 167.100,239.600 166.324 C 239.600 164.998,238.583 162.800,237.969 162.800 C 237.744 162.800,237.308 162.200,237.002 161.466 C 236.695 160.733,235.906 159.556,235.249 158.852 C 234.591 158.148,233.857 156.978,233.617 156.251 C 233.163 154.875,232.989 154.666,229.582 151.412 C 226.349 148.324,226.408 147.399,230.082 143.515 C 233.281 140.133,233.273 140.137,235.335 140.999 M144.798 161.414 L 131.800 174.428 121.524 174.359 L 111.248 174.290 109.924 175.614 L 108.600 176.938 108.600 200.800 L 108.600 224.662 109.869 225.931 L 111.138 227.200 121.469 227.206 L 131.800 227.213 144.893 240.206 C 152.434 247.690,158.295 253.200,158.713 253.200 C 159.691 253.200,160.400 252.430,160.400 251.369 C 160.400 250.890,160.670 250.274,161.000 250.000 C 161.911 249.244,161.911 152.356,161.000 151.600 C 160.670 151.326,160.400 150.710,160.400 150.231 C 160.400 149.136,159.684 148.400,158.618 148.400 C 158.071 148.400,153.437 152.764,144.798 161.414 M160.000 150.600 C 160.000 151.096,160.270 151.726,160.600 152.000 C 161.127 152.438,161.200 158.353,161.200 200.800 C 161.200 243.247,161.127 249.162,160.600 249.600 C 160.270 249.874,160.000 250.504,160.000 251.000 C 160.000 254.365,158.900 253.527,144.800 239.418 L 132.200 226.810 122.114 226.805 L 112.028 226.800 110.614 225.559 L 109.200 224.317 109.200 200.736 L 109.200 177.155 110.489 175.977 L 111.778 174.800 121.976 174.800 L 132.173 174.800 144.890 162.104 C 159.026 147.992,160.000 147.250,160.000 150.600 M207.800 166.400 C 207.402 166.840,206.726 167.200,206.298 167.200 C 205.871 167.200,205.044 167.695,204.460 168.300 C 203.877 168.905,202.365 170.332,201.100 171.471 C 198.235 174.050,198.206 173.812,201.800 177.279 C 204.571 179.951,204.800 180.297,204.800 181.805 C 204.800 183.183,205.050 183.682,206.400 185.000 L 208.000 186.562 208.004 189.781 L 208.008 193.000 209.600 194.400 L 211.192 195.800 211.196 200.762 L 211.200 205.723 209.600 207.093 L 208.000 208.462 208.000 211.750 L 208.000 215.038 206.400 216.600 C 205.074 217.895,204.800 218.430,204.800 219.721 C 204.800 221.134,204.518 221.555,201.800 224.213 C 199.120 226.832,198.130 228.400,199.156 228.400 C 199.352 228.400,200.884 229.750,202.561 231.400 C 204.457 233.265,205.937 234.400,206.474 234.400 C 206.948 234.400,207.671 234.702,208.080 235.072 C 209.049 235.949,212.184 233.086,212.813 230.751 C 213.030 229.946,213.634 229.008,214.154 228.667 C 215.367 227.872,218.878 220.826,219.031 218.882 C 219.119 217.752,219.486 217.115,220.574 216.200 L 222.000 215.000 222.000 200.800 L 222.000 186.600 220.580 185.400 C 219.387 184.392,219.131 183.885,218.979 182.231 C 218.880 181.148,218.555 179.978,218.256 179.631 C 217.958 179.284,217.159 177.806,216.480 176.347 C 215.801 174.888,214.773 173.322,214.196 172.869 C 213.620 172.415,212.978 171.449,212.770 170.722 C 212.474 169.687,209.179 165.600,208.640 165.600 C 208.576 165.600,208.198 165.960,207.800 166.400 M210.569 168.300 C 211.597 169.378,212.385 170.588,212.391 171.097 C 212.396 171.590,212.937 172.473,213.594 173.058 C 215.020 174.328,218.208 180.743,218.536 183.000 C 218.703 184.149,219.139 184.914,220.084 185.713 L 221.400 186.825 221.400 200.800 L 221.400 214.775 220.084 215.887 C 219.136 216.689,218.704 217.448,218.540 218.600 C 218.211 220.901,215.290 226.779,213.730 228.280 C 212.967 229.014,212.400 229.958,212.400 230.495 C 212.400 232.109,208.607 235.535,208.025 234.447 C 207.758 233.947,207.180 233.600,206.617 233.600 C 205.410 233.600,199.740 228.224,199.926 227.256 C 199.996 226.895,201.211 225.502,202.626 224.159 C 205.043 221.867,205.200 221.609,205.200 219.930 C 205.200 218.335,205.372 217.998,206.800 216.800 L 208.400 215.458 208.400 212.116 L 208.400 208.775 210.000 207.304 L 211.600 205.833 211.600 200.800 L 211.600 195.767 210.000 194.296 L 208.400 192.825 208.400 189.496 L 208.400 186.167 206.800 184.696 C 205.430 183.437,205.200 182.988,205.200 181.577 C 205.200 180.060,204.976 179.713,202.400 177.227 C 199.891 174.806,198.924 173.200,199.976 173.200 C 200.183 173.200,201.510 172.030,202.926 170.600 C 204.775 168.733,205.793 168.000,206.536 168.000 C 207.162 168.000,207.741 167.684,208.000 167.200 C 208.563 166.148,208.483 166.114,210.569 168.300 " stroke="none" fill="#848484" fill-rule="evenodd"></path><path id="path4" d="M171.796 200.800 C 171.796 241.390,171.843 257.995,171.900 237.700 C 171.957 217.405,171.957 184.195,171.900 163.900 C 171.843 143.605,171.796 160.210,171.796 200.800 M240.446 145.410 C 240.417 145.931,241.505 147.286,243.500 149.210 L 246.600 152.200 243.735 149.200 C 242.159 147.550,240.785 145.840,240.682 145.400 C 240.495 144.609,240.492 144.609,240.446 145.410 M148.600 158.400 C 143.984 163.020,140.297 166.800,140.407 166.800 C 140.517 166.800,144.384 163.020,149.000 158.400 C 153.616 153.780,157.303 150.000,157.193 150.000 C 157.083 150.000,153.216 153.780,148.600 158.400 M287.693 151.200 C 287.693 151.970,287.775 152.285,287.876 151.900 C 287.976 151.515,287.976 150.885,287.876 150.500 C 287.775 150.115,287.693 150.430,287.693 151.200 M160.993 200.800 C 160.993 226.650,161.041 237.225,161.100 224.300 C 161.158 211.375,161.158 190.225,161.100 177.300 C 161.041 164.375,160.993 174.950,160.993 200.800 M282.961 180.800 C 282.961 184.210,283.022 185.605,283.097 183.900 C 283.172 182.195,283.172 179.405,283.097 177.700 C 283.022 175.995,282.961 177.390,282.961 180.800 M298.587 200.800 C 298.587 213.450,298.638 218.625,298.700 212.300 C 298.762 205.975,298.762 195.625,298.700 189.300 C 298.638 182.975,298.587 188.150,298.587 200.800 M244.951 184.800 C 244.951 187.330,245.016 188.365,245.096 187.100 C 245.175 185.835,245.175 183.765,245.096 182.500 C 245.016 181.235,244.951 182.270,244.951 184.800 M222.180 200.600 C 222.180 208.080,222.234 211.083,222.299 207.274 C 222.365 203.465,222.365 197.345,222.299 193.674 C 222.233 190.003,222.179 193.120,222.180 200.600 M286.174 200.800 C 286.174 206.410,286.230 208.705,286.299 205.900 C 286.368 203.095,286.368 198.505,286.299 195.700 C 286.230 192.895,286.174 195.190,286.174 200.800 M244.950 216.600 C 244.951 219.020,245.016 219.958,245.096 218.685 C 245.176 217.412,245.175 215.432,245.094 214.285 C 245.014 213.138,244.949 214.180,244.950 216.600 M282.961 220.800 C 282.961 224.210,283.022 225.605,283.097 223.900 C 283.172 222.195,283.172 219.405,283.097 217.700 C 283.022 215.995,282.961 217.390,282.961 220.800 M131.200 226.693 C 131.750 226.794,132.470 227.084,132.800 227.338 C 133.322 227.740,133.329 227.709,132.851 227.100 C 132.548 226.714,131.830 226.424,131.251 226.454 L 130.200 226.509 131.200 226.693 M144.200 238.800 C 148.155 242.760,151.482 246.000,151.592 246.000 C 151.702 246.000,148.555 242.760,144.600 238.800 C 140.645 234.840,137.318 231.600,137.208 231.600 C 137.098 231.600,140.245 234.840,144.200 238.800 M206.400 234.691 C 206.950 234.791,207.721 235.159,208.112 235.510 C 208.767 236.094,208.881 236.085,209.512 235.395 C 210.165 234.683,210.164 234.671,209.492 235.177 C 208.894 235.628,208.673 235.609,208.061 235.055 C 207.663 234.695,206.901 234.425,206.369 234.454 L 205.400 234.509 206.400 234.691 M106.500 237.499 C 109.745 237.566,115.055 237.566,118.300 237.499 C 121.545 237.432,118.890 237.377,112.400 237.377 C 105.910 237.377,103.255 237.432,106.500 237.499 M155.800 250.400 C 156.883 251.500,157.860 252.400,157.970 252.400 C 158.080 252.400,157.283 251.500,156.200 250.400 C 155.117 249.300,154.140 248.400,154.030 248.400 C 153.920 248.400,154.717 249.300,155.800 250.400 M287.701 250.200 C 287.705 251.080,287.787 251.393,287.883 250.895 C 287.979 250.398,287.975 249.678,287.875 249.295 C 287.775 248.913,287.696 249.320,287.701 250.200 M244.400 251.400 C 243.428 252.390,242.723 253.200,242.833 253.200 C 242.943 253.200,243.828 252.390,244.800 251.400 C 245.772 250.410,246.477 249.600,246.367 249.600 C 246.257 249.600,245.372 250.410,244.400 251.400 M226.800 255.725 C 226.800 255.794,227.385 256.379,228.100 257.025 L 229.400 258.200 228.225 256.900 C 227.130 255.688,226.800 255.416,226.800 255.725 M238.975 258.500 L 237.800 259.800 239.100 258.625 C 239.815 257.979,240.400 257.394,240.400 257.325 C 240.400 257.016,240.070 257.288,238.975 258.500 " stroke="none" fill="#7c7c7c" fill-rule="evenodd"></path></g></svg>